<svg xmlns="http://www.w3.org/2000/svg" width="27" height="21" viewBox="0 0 27 21" fill="none">
  <path d="M22.5662 1.68915C20.877 0.901725 19.0482 0.330209 17.1431 0C17.1096 0.000477158 17.0777 0.014172 17.0542 0.0381013C16.8256 0.457213 16.5589 1.00333 16.3811 1.42244C14.3605 1.11782 12.3056 1.11782 10.285 1.42244C10.1071 0.990627 9.84044 0.457213 9.59913 0.0381013C9.58643 0.0127006 9.54833 0 9.51023 0C7.60518 0.330209 5.78903 0.901725 4.08718 1.68915C4.07448 1.68915 4.06178 1.70185 4.04908 1.71455C0.594585 6.88359 -0.357941 11.9129 0.111971 16.8915C0.111971 16.9169 0.124672 16.9423 0.150072 16.955C2.43614 18.6314 4.6333 19.6474 6.80506 20.3206C6.84316 20.3333 6.88126 20.3206 6.89396 20.2952C7.40197 19.5966 7.85918 18.86 8.25289 18.0853C8.2783 18.0345 8.25289 17.9837 8.20209 17.971C7.47817 17.6916 6.79235 17.3614 6.11924 16.9804C6.06844 16.955 6.06843 16.8788 6.10654 16.8407C6.24624 16.7391 6.38594 16.6248 6.52565 16.5232C6.55105 16.4978 6.58915 16.4978 6.61455 16.5105C10.9835 18.5044 15.6953 18.5044 20.0134 16.5105C20.0388 16.4978 20.0769 16.4978 20.1023 16.5232C20.242 16.6375 20.3817 16.7391 20.5214 16.8534C20.5722 16.8915 20.5722 16.9677 20.5087 16.9931C19.8483 17.3868 19.1498 17.7043 18.4259 17.9837C18.3751 17.9964 18.3624 18.0599 18.3751 18.098C18.7815 18.8727 19.2387 19.6093 19.734 20.3079C19.7721 20.3206 19.8102 20.3333 19.8483 20.3206C22.0328 19.6474 24.2299 18.6314 26.516 16.955C26.5414 16.9423 26.5541 16.9169 26.5541 16.8915C27.1129 11.1382 25.627 6.14697 22.617 1.71455C22.6043 1.70185 22.5916 1.68915 22.5662 1.68915ZM8.91331 13.8561C7.60518 13.8561 6.51295 12.6495 6.51295 11.1636C6.51295 9.67766 7.57978 8.47113 8.91331 8.47113C10.2596 8.47113 11.3264 9.69037 11.3137 11.1636C11.3137 12.6495 10.2469 13.8561 8.91331 13.8561ZM17.7655 13.8561C16.4573 13.8561 15.3651 12.6495 15.3651 11.1636C15.3651 9.67766 16.4319 8.47113 17.7655 8.47113C19.1117 8.47113 20.1785 9.69037 20.1658 11.1636C20.1658 12.6495 19.1117 13.8561 17.7655 13.8561Z" fill="#64748B"/>
</svg>