<svg xmlns="http://www.w3.org/2000/svg" width="27" height="27" viewBox="0 0 27 27" fill="none">
  <path d="M13.2683 21.336C13.735 21.336 14.1298 21.1746 14.4525 20.8519C14.7752 20.5292 14.9361 20.1349 14.9352 19.6691C14.9343 19.2033 14.7734 18.8086 14.4525 18.485C14.1315 18.1614 13.7368 18.0005 13.2683 18.0022C12.7998 18.004 12.4055 18.1654 12.0855 18.4863C11.7655 18.8072 11.6041 19.2015 11.6014 19.6691C11.5988 20.1367 11.7601 20.5314 12.0855 20.8533C12.4109 21.1751 12.8051 21.336 13.2683 21.336ZM13.335 26.67C11.4903 26.67 9.75677 26.3197 8.13435 25.6192C6.51192 24.9187 5.10064 23.9688 3.90049 22.7695C2.70034 21.5702 1.75044 20.1589 1.0508 18.5356C0.351157 16.9123 0.000890687 15.1788 1.68797e-06 13.335C-0.000887311 11.4912 0.349379 9.75766 1.0508 8.13434C1.75222 6.51103 2.70212 5.09975 3.90049 3.90049C5.09886 2.70122 6.51014 1.75133 8.13435 1.0508C9.75855 0.350266 11.4921 0 13.335 0C15.1779 0 16.9114 0.350266 18.5356 1.0508C20.1598 1.75133 21.5711 2.70122 22.7695 3.90049C23.9679 5.09975 24.9182 6.51103 25.6205 8.13434C26.3228 9.75766 26.6727 11.4912 26.67 13.335C26.6673 15.1788 26.3171 16.9123 25.6192 18.5356C24.9213 20.1589 23.9714 21.5702 22.7695 22.7695C21.5676 23.9688 20.1563 24.9191 18.5356 25.6205C16.915 26.3219 15.1814 26.6718 13.335 26.67ZM13.4683 7.60094C14.024 7.60094 14.5076 7.77875 14.9192 8.13434C15.3308 8.48994 15.5362 8.93444 15.5353 9.46784C15.5353 9.95679 15.3855 10.3902 15.0859 10.768C14.7863 11.1458 14.4471 11.5014 14.0684 11.8348C13.5572 12.2793 13.1074 12.7683 12.7189 13.3017C12.3304 13.8351 12.1357 14.4351 12.1348 15.1019C12.1348 15.413 12.2517 15.6744 12.4856 15.886C12.7194 16.0976 12.9914 16.2029 13.3017 16.202C13.635 16.202 13.9186 16.0909 14.1524 15.8686C14.3862 15.6464 14.536 15.3686 14.6018 15.0352C14.6907 14.5685 14.8907 14.152 15.2019 13.7857C15.513 13.4194 15.8464 13.0692 16.202 12.7349C16.7132 12.246 17.1524 11.7126 17.5195 11.1347C17.8867 10.5569 18.0698 9.91234 18.0689 9.20114C18.0689 8.06767 17.608 7.14 16.6861 6.41813C15.7642 5.69626 14.6916 5.33489 13.4683 5.334C12.6238 5.334 11.8184 5.5118 11.052 5.8674C10.2857 6.223 9.7021 6.76751 9.30116 7.50093C9.14558 7.76763 9.0958 8.05122 9.15181 8.3517C9.20781 8.65219 9.35761 8.87977 9.60119 9.03446C9.91234 9.21226 10.2346 9.26782 10.568 9.20114C10.9014 9.13447 11.1792 8.94556 11.4014 8.63441C11.6459 8.30103 11.9517 8.04544 12.3189 7.86764C12.686 7.68984 13.0692 7.60094 13.4683 7.60094Z" fill="#64748B"/>
</svg>