<svg xmlns="http://www.w3.org/2000/svg" width="23" height="22" viewBox="0 0 23 22" fill="none">
  <path d="M16.5 9C16.5 13.1421 13.1421 16.5 9 16.5C4.85786 16.5 1.5 13.1421 1.5 9C1.5 4.85786 4.85786 1.5 9 1.5C13.1421 1.5 16.5 4.85786 16.5 9Z" stroke="#F1F5F9" stroke-width="3"/>
  <path d="M16.0607 12.9393L15 11.8787L12.8787 14L13.9393 15.0607L16.0607 12.9393ZM19.9393 21.0607C20.5251 21.6464 21.4749 21.6464 22.0607 21.0607C22.6464 20.4749 22.6464 19.5251 22.0607 18.9393L19.9393 21.0607ZM13.9393 15.0607L19.9393 21.0607L22.0607 18.9393L16.0607 12.9393L13.9393 15.0607Z" fill="#F1F5F9"/>
</svg>