<svg xmlns="http://www.w3.org/2000/svg" width="26" height="23" viewBox="0 0 26 23" fill="none">
  <path d="M1.2513 23C1.01909 23 0.807981 22.9416 0.617985 22.8249C0.42799 22.7082 0.280215 22.5536 0.174662 22.3611C0.0691091 22.1686 0.011266 21.9607 0.00113289 21.7375C-0.00900021 21.5143 0.0488429 21.2963 0.174662 21.0833L11.8911 0.638888C12.0177 0.425925 12.1815 0.266203 12.3825 0.159722C12.5835 0.0532407 12.7891 0 12.9994 0C13.2096 0 13.4157 0.0532407 13.6175 0.159722C13.8193 0.266203 13.9827 0.425925 14.1077 0.638888L25.8241 21.0833C25.9507 21.2963 26.009 21.5148 25.9989 21.7388C25.9887 21.9628 25.9305 22.1703 25.8241 22.3611C25.7177 22.5519 25.5699 22.7065 25.3808 22.8249C25.1916 22.9433 24.9805 23.0017 24.7474 23H1.2513ZM12.9994 19.1666C13.3583 19.1666 13.6593 19.044 13.9025 18.7986C14.1457 18.5533 14.2669 18.25 14.266 17.8889C14.2652 17.5277 14.1436 17.2244 13.9012 16.9791C13.6589 16.7338 13.3583 16.6111 12.9994 16.6111C12.6405 16.6111 12.3399 16.7338 12.0975 16.9791C11.8552 17.2244 11.7336 17.5277 11.7327 17.8889C11.7319 18.25 11.8535 18.5537 12.0975 18.7999C12.3416 19.0461 12.6422 19.1683 12.9994 19.1666ZM12.9994 15.3333C13.3583 15.3333 13.6593 15.2106 13.9025 14.9653C14.1457 14.72 14.2669 14.4167 14.266 14.0555V10.2222C14.266 9.86017 14.1444 9.55691 13.9012 9.31243C13.658 9.06795 13.3574 8.94528 12.9994 8.94443C12.6413 8.94358 12.3407 9.06625 12.0975 9.31243C11.8543 9.55861 11.7327 9.86187 11.7327 10.2222V14.0555C11.7327 14.4176 11.8543 14.7213 12.0975 14.9666C12.3407 15.2119 12.6413 15.3342 12.9994 15.3333Z" fill="#64748B"/>
</svg>