<svg width="261" height="50" viewBox="0 0 261 50" fill="none" xmlns="http://www.w3.org/2000/svg">
<path d="M251.151 0H9.84905C4.40957 0 0 4.07014 0 9.09091V40.9091C0 45.9299 4.40957 50 9.84905 50H251.151C256.59 50 261 45.9299 261 40.9091V9.09091C261 4.07014 256.59 0 251.151 0Z" fill="#1E293B"/>
<g opacity="0.78">
<path d="M26.9345 28.2878H41.8006V35.2958H17.4897V28.2878H24.3236L33.7328 23.2242H17.4897V16.2162H41.8006V23.2242L26.9345 28.2878Z" fill="white"/>
<path d="M33.6518 16.2162H17.4897V23.2242H33.6518V16.2162Z" fill="#6300FF"/>
<path d="M41.7987 28.288H27.0097V35.2959H41.7987V28.288Z" fill="#FF4400"/>
</g>
<path d="M174.897 30.7435V28.1693L179.555 22.7983C180.319 21.9201 180.884 21.2983 181.251 20.9296C180.869 20.9528 180.367 20.9687 179.742 20.9759L175.354 20.999V18.261H185.629V20.6001L180.877 26.101L179.205 27.9235C180.118 27.8682 180.682 27.8416 180.903 27.8416H185.992V30.7452H174.901L174.897 30.7435Z" fill="#94A3B8"/>
<path d="M193.961 26.7713L197.237 27.3234C196.814 28.5295 196.151 29.4487 195.241 30.0794C194.333 30.7099 193.194 31.0253 191.831 31.0253C189.67 31.0253 188.071 30.3163 187.033 28.8983C186.214 27.7617 185.804 26.3276 185.804 24.5961C185.804 22.5279 186.342 20.9068 187.418 19.7364C188.495 18.566 189.855 17.9799 191.503 17.9799C193.35 17.9799 194.81 18.5928 195.879 19.8201C196.949 21.0457 197.46 22.9252 197.412 25.4565H189.174C189.197 26.4363 189.463 27.1988 189.97 27.7421C190.478 28.2872 191.109 28.5598 191.866 28.5598C192.38 28.5598 192.813 28.4191 193.164 28.1359C193.515 27.8544 193.78 27.4001 193.961 26.773V26.7713ZM194.149 23.4329C194.126 22.4763 193.879 21.7494 193.41 21.2524C192.942 20.7553 192.373 20.506 191.703 20.506C190.985 20.506 190.393 20.7678 189.925 21.2933C189.456 21.8188 189.225 22.5314 189.234 23.4329H194.149Z" fill="#94A3B8"/>
<path d="M201.111 22.0701L198.129 21.5284C198.464 20.3225 199.042 19.4282 199.859 18.8492C200.679 18.2703 201.896 17.9799 203.509 17.9799C204.976 17.9799 206.069 18.1545 206.785 18.5036C207.503 18.8528 208.008 19.2945 208.3 19.8326C208.593 20.3688 208.738 21.354 208.738 22.788L208.702 26.643C208.702 27.7403 208.756 28.5491 208.861 29.0692C208.964 29.5913 209.162 30.1488 209.451 30.7438H206.198C206.113 30.5247 206.007 30.1987 205.882 29.7676C205.827 29.5717 205.788 29.4434 205.765 29.3792C205.203 29.9279 204.604 30.3394 203.963 30.6138C203.323 30.8882 202.64 31.0253 201.914 31.0253C200.636 31.0253 199.627 30.6761 198.891 29.9796C198.153 29.283 197.786 28.4013 197.786 27.336C197.786 26.6305 197.955 26.0017 198.29 25.4494C198.625 24.8972 199.095 24.4732 199.7 24.181C200.304 23.8871 201.176 23.6306 202.315 23.4114C203.852 23.1211 204.917 22.8521 205.509 22.6009V22.2714C205.509 21.6372 205.353 21.1847 205.041 20.9138C204.729 20.6432 204.141 20.5078 203.275 20.5078C202.689 20.5078 202.235 20.6236 201.906 20.8551C201.578 21.0867 201.313 21.4911 201.11 22.0718L201.111 22.0701ZM205.512 24.7494C205.089 24.8901 204.422 25.0592 203.511 25.2552C202.599 25.4511 202.002 25.6436 201.722 25.8306C201.293 26.1353 201.078 26.5236 201.078 26.994C201.078 27.4642 201.25 27.8561 201.592 28.1928C201.936 28.5295 202.372 28.6987 202.903 28.6987C203.495 28.6987 204.06 28.5028 204.6 28.1109C204.997 27.8134 205.26 27.4482 205.384 27.0171C205.469 26.7356 205.513 26.1994 205.513 25.4067V24.7475L205.512 24.7494Z" fill="#94A3B8"/>
<path d="M210.404 30.7434V13.5134H213.692V19.7182C214.706 18.5584 215.906 17.9795 217.295 17.9795C218.808 17.9795 220.059 18.5299 221.051 19.6309C222.042 20.7318 222.538 22.3119 222.538 24.373C222.538 26.4341 222.032 28.1461 221.023 29.2969C220.012 30.4476 218.787 31.0249 217.343 31.0249C216.634 31.0249 215.933 30.8467 215.243 30.4905C214.553 30.1341 213.957 29.6068 213.459 28.9103V30.7434H210.404ZM213.668 24.2322C213.668 25.5256 213.871 26.4805 214.277 27.1003C214.846 27.9786 215.604 28.4168 216.547 28.4168C217.272 28.4168 217.891 28.105 218.402 27.4817C218.913 26.8582 219.167 25.8765 219.167 24.5369C219.167 23.1118 218.91 22.0821 218.396 21.4515C217.883 20.8209 217.222 20.5056 216.419 20.5056C215.616 20.5056 214.975 20.8137 214.453 21.4283C213.931 22.0429 213.67 22.9782 213.67 24.2322H213.668Z" fill="#94A3B8"/>
<path d="M231.923 30.7435V28.8748C231.471 29.541 230.876 30.0666 230.139 30.4496C229.402 30.8343 228.624 31.025 227.805 31.025C226.985 31.025 226.221 30.8415 225.558 30.4727C224.895 30.104 224.416 29.5874 224.118 28.921C223.821 28.2548 223.673 27.3339 223.673 26.1598V18.261H226.961V23.9973C226.961 25.752 227.022 26.8279 227.141 27.2233C227.262 27.6189 227.482 27.9324 227.803 28.164C228.122 28.3955 228.528 28.5113 229.019 28.5113C229.582 28.5113 230.084 28.3563 230.529 28.0465C230.974 27.7365 231.277 27.3535 231.442 26.8956C231.605 26.4378 231.689 25.3155 231.689 23.5288V18.261H234.977V30.7435H231.923Z" fill="#94A3B8"/>
<path d="M240.092 30.7438H236.804V18.2614H239.858V20.0356C240.381 19.1965 240.851 18.6444 241.268 18.379C241.685 18.1117 242.158 17.9799 242.69 17.9799C243.439 17.9799 244.16 18.1883 244.856 18.6034L243.837 21.4822C243.284 21.1224 242.768 20.9406 242.293 20.9406C241.818 20.9406 241.444 21.0688 241.122 21.3218C240.803 21.5765 240.552 22.0361 240.368 22.7025C240.185 23.3687 240.092 24.7636 240.092 26.8871V30.7438Z" fill="#94A3B8"/>
<path d="M62.5889 17.8378C64.0078 17.8378 65.2321 18.109 66.2617 18.6513C67.304 19.1936 68.1076 19.9693 68.6726 20.9783C69.2502 21.9747 69.539 23.154 69.539 24.5162C69.539 25.8658 69.2502 27.0324 68.6726 28.0162C68.1076 29 67.304 29.7567 66.2617 30.2864C65.2321 30.8162 64.0078 31.081 62.5889 31.081H57.8801V17.8378H62.5889ZM62.5889 29.2081C64.0957 29.2081 65.251 28.7982 66.0545 27.9783C66.8708 27.1459 67.2788 25.9918 67.2788 24.5162C67.2788 23.0279 66.8708 21.855 66.0545 20.9972C65.251 20.1395 64.0957 19.7108 62.5889 19.7108H60.1215V29.2081H62.5889ZM75.7446 31.2135C74.8029 31.2135 73.9741 31.0054 73.2584 30.5891C72.5552 30.1729 72.0026 29.5928 71.6009 28.8486C71.2116 28.1044 71.017 27.2468 71.017 26.2756C71.017 25.355 71.2116 24.5351 71.6009 23.8162C71.9901 23.0972 72.53 22.5297 73.2207 22.1135C73.9113 21.6973 74.6961 21.4891 75.5751 21.4891C76.4666 21.4891 77.2514 21.6847 77.9295 22.0756C78.6076 22.4666 79.1349 23.0152 79.5116 23.7216C79.9009 24.4152 80.0955 25.2225 80.0955 26.1432C80.0955 26.2945 80.0892 26.4585 80.0767 26.6351C80.0641 26.799 80.0452 26.9756 80.0202 27.1648H73.3149C73.3776 27.6063 73.5158 27.9909 73.7293 28.3189C73.9553 28.6341 74.2378 28.8801 74.5769 29.0567C74.9159 29.2333 75.3051 29.3216 75.7446 29.3216C76.272 29.3216 76.7429 29.2144 77.1573 29C77.5841 28.7855 77.8792 28.5017 78.0425 28.1486L79.9072 28.7729C79.5305 29.5297 78.9716 30.1287 78.2309 30.5702C77.49 30.999 76.6612 31.2135 75.7446 31.2135ZM77.7788 25.4243C77.7662 25.0333 77.6595 24.6801 77.4586 24.3648C77.2576 24.0495 76.9939 23.8036 76.6676 23.627C76.341 23.4378 75.9768 23.3432 75.5751 23.3432C75.2234 23.3432 74.8907 23.4314 74.5769 23.6081C74.2629 23.7847 73.993 24.0306 73.767 24.3459C73.5534 24.6486 73.4153 25.0081 73.3526 25.4243H77.7788ZM83.9854 29.681L84.2302 29.6243V34.8648H82.1019V21.6216H84.023L84.1737 22.7945C84.4876 22.4287 84.8958 22.1198 85.398 21.8675C85.9002 21.6152 86.5093 21.4891 87.225 21.4891C88.0412 21.4891 88.7632 21.6909 89.391 22.0945C90.0314 22.4982 90.5275 23.0658 90.879 23.7973C91.2432 24.5162 91.4252 25.3675 91.4252 26.3513C91.4252 27.3225 91.2432 28.1739 90.879 28.9054C90.5275 29.6368 90.0378 30.2044 89.4099 30.6081C88.782 31.0117 88.0537 31.2135 87.225 31.2135C86.4716 31.2135 85.8187 31.0685 85.2662 30.7783C84.7136 30.4756 84.2867 30.1098 83.9854 29.681ZM89.1462 26.3513C89.1462 25.481 88.9138 24.7747 88.4493 24.2324C87.9972 23.6901 87.4134 23.4189 86.6976 23.4189C86.2456 23.4189 85.8312 23.5324 85.4545 23.7594C85.0903 23.9864 84.7953 24.3144 84.5693 24.7432C84.3432 25.172 84.2302 25.7081 84.2302 26.3513C84.2302 26.982 84.3432 27.5179 84.5693 27.9594C84.7953 28.3882 85.0903 28.7162 85.4545 28.9432C85.8312 29.1702 86.2456 29.2837 86.6976 29.2837C87.4134 29.2837 87.9972 29.0125 88.4493 28.4702C88.9138 27.9279 89.1462 27.2216 89.1462 26.3513ZM93.4139 17.4594H95.5423V31.081H93.4139V17.4594ZM102.231 31.2135C101.327 31.2135 100.517 31.0179 99.8012 30.627C99.0854 30.2233 98.5267 29.6621 98.1248 28.9432C97.7231 28.2117 97.5221 27.354 97.5221 26.3702C97.5221 25.3739 97.7293 24.5098 98.1437 23.7783C98.5581 23.0468 99.1294 22.4855 99.8577 22.0945C100.586 21.6909 101.396 21.4891 102.287 21.4891C103.191 21.4891 104.001 21.6909 104.717 22.0945C105.445 22.4855 106.023 23.0468 106.45 23.7783C106.877 24.4973 107.09 25.3486 107.09 26.3324C107.09 27.3287 106.871 28.1928 106.431 28.9243C106.004 29.6558 105.42 30.2233 104.679 30.627C103.951 31.0179 103.135 31.2135 102.231 31.2135ZM102.212 29.3027C102.652 29.3027 103.066 29.1955 103.455 28.981C103.857 28.7666 104.184 28.445 104.435 28.0162C104.686 27.5747 104.811 27.0135 104.811 26.3324C104.811 25.6766 104.692 25.1341 104.453 24.7054C104.215 24.2639 103.901 23.936 103.512 23.7216C103.122 23.5071 102.702 23.4 102.25 23.4C101.81 23.4 101.402 23.5071 101.025 23.7216C100.661 23.936 100.366 24.2639 100.14 24.7054C99.9142 25.1341 99.8012 25.6891 99.8012 26.3702C99.8012 27.026 99.908 27.5747 100.121 28.0162C100.347 28.445 100.643 28.7666 101.007 28.981C101.371 29.1955 101.773 29.3027 102.212 29.3027ZM115.324 21.6216H117.566L112.028 34.8648H109.919L111.614 30.8162L107.941 21.6216H110.296L112.782 28.3189L115.324 21.6216ZM123.163 31.2135C122.222 31.2135 121.393 31.0054 120.677 30.5891C119.974 30.1729 119.421 29.5928 119.02 28.8486C118.63 28.1044 118.436 27.2468 118.436 26.2756C118.436 25.355 118.63 24.5351 119.02 23.8162C119.409 23.0972 119.949 22.5297 120.639 22.1135C121.33 21.6973 122.115 21.4891 122.994 21.4891C123.885 21.4891 124.67 21.6847 125.348 22.0756C126.026 22.4666 126.554 23.0152 126.93 23.7216C127.32 24.4152 127.514 25.2225 127.514 26.1432C127.514 26.2945 127.508 26.4585 127.495 26.6351C127.483 26.799 127.464 26.9756 127.439 27.1648H120.734C120.796 27.6063 120.934 27.9909 121.148 28.3189C121.374 28.6341 121.657 28.8801 121.996 29.0567C122.335 29.2333 122.724 29.3216 123.163 29.3216C123.691 29.3216 124.162 29.2144 124.576 29C125.003 28.7855 125.298 28.5017 125.461 28.1486L127.326 28.7729C126.949 29.5297 126.39 30.1287 125.65 30.5702C124.909 30.999 124.08 31.2135 123.163 31.2135ZM125.198 25.4243C125.185 25.0333 125.078 24.6801 124.877 24.3648C124.676 24.0495 124.413 23.8036 124.086 23.627C123.76 23.4378 123.396 23.3432 122.994 23.3432C122.642 23.3432 122.309 23.4314 121.996 23.6081C121.682 23.7847 121.412 24.0306 121.186 24.3459C120.972 24.6486 120.834 25.0081 120.771 25.4243H125.198ZM136.452 23.0216L136.207 23.0783V17.4594H138.335V31.081H136.414L136.264 29.9081C135.937 30.2739 135.522 30.5828 135.02 30.8351C134.518 31.0874 133.922 31.2135 133.231 31.2135C132.39 31.2135 131.649 31.0117 131.009 30.6081C130.381 30.2044 129.891 29.6368 129.539 28.9054C129.188 28.1739 129.012 27.3225 129.012 26.3513C129.012 25.3801 129.188 24.5287 129.539 23.7973C129.891 23.0658 130.381 22.4982 131.009 22.0945C131.649 21.6909 132.39 21.4891 133.231 21.4891C133.972 21.4891 134.618 21.6405 135.171 21.9432C135.724 22.2333 136.151 22.5928 136.452 23.0216ZM131.291 26.3513C131.291 27.2216 131.517 27.9279 131.969 28.4702C132.421 29.0125 133.011 29.2837 133.74 29.2837C134.179 29.2837 134.58 29.1702 134.945 28.9432C135.322 28.7162 135.623 28.3882 135.849 27.9594C136.087 27.5179 136.207 26.982 136.207 26.3513C136.207 25.7206 136.087 25.1909 135.849 24.7621C135.623 24.3206 135.322 23.9864 134.945 23.7594C134.58 23.5324 134.179 23.4189 133.74 23.4189C133.011 23.4189 132.421 23.6901 131.969 24.2324C131.517 24.7747 131.291 25.481 131.291 26.3513ZM150.312 31.2135C149.408 31.2135 148.598 31.0179 147.882 30.627C147.166 30.2233 146.608 29.6621 146.206 28.9432C145.804 28.2117 145.603 27.354 145.603 26.3702C145.603 25.3739 145.81 24.5098 146.225 23.7783C146.639 23.0468 147.211 22.4855 147.939 22.0945C148.666 21.6909 149.476 21.4891 150.368 21.4891C151.272 21.4891 152.082 21.6909 152.798 22.0945C153.526 22.4855 154.104 23.0468 154.531 23.7783C154.957 24.4973 155.171 25.3486 155.171 26.3324C155.171 27.3287 154.952 28.1928 154.512 28.9243C154.086 29.6558 153.502 30.2233 152.76 30.627C152.033 31.0179 151.216 31.2135 150.312 31.2135ZM150.293 29.3027C150.733 29.3027 151.147 29.1955 151.536 28.981C151.938 28.7666 152.264 28.445 152.515 28.0162C152.767 27.5747 152.892 27.0135 152.892 26.3324C152.892 25.6766 152.772 25.1341 152.534 24.7054C152.296 24.2639 151.981 23.936 151.593 23.7216C151.204 23.5071 150.783 23.4 150.331 23.4C149.891 23.4 149.483 23.5071 149.106 23.7216C148.742 23.936 148.447 24.2639 148.221 24.7054C147.995 25.1341 147.882 25.6891 147.882 26.3702C147.882 27.026 147.988 27.5747 148.202 28.0162C148.428 28.445 148.723 28.7666 149.088 28.981C149.452 29.1955 149.853 29.3027 150.293 29.3027ZM157.166 21.6216H159.088L159.238 22.5486C159.552 22.2206 159.922 21.9621 160.35 21.7729C160.788 21.5837 161.259 21.4891 161.762 21.4891C162.502 21.4891 163.137 21.6468 163.664 21.9621C164.204 22.2648 164.618 22.7189 164.908 23.3243C165.196 23.9171 165.341 24.6612 165.341 25.5567V31.081H163.212V25.8405C163.212 25.0459 163.048 24.4468 162.723 24.0432C162.408 23.6395 161.932 23.4378 161.291 23.4378C160.637 23.4378 160.142 23.6459 159.803 24.0621C159.464 24.4658 159.295 25.0648 159.295 25.8594V31.081H157.166V21.6216Z" fill="#94A3B8"/>
</svg>
