<svg xmlns="http://www.w3.org/2000/svg" width="221" height="42" viewBox="0 0 221 42" fill="none">
  <g clip-path="url(#clip0_6_236)">
    <path d="M19.7248 27.4207H50.7601V42.0001H-0.00140381V27.4207H14.2694L33.9188 16.8842H-0.00140381V2.30493H50.7601V16.8842L19.7248 27.4207Z" fill="#F1F5F9"/>
    <path d="M33.7489 2.30493H-0.00012207V16.8842H33.7489V2.30493Z" fill="#6300FF"/>
    <path d="M50.7675 27.4208H19.8826V42.0001H50.7675V27.4208Z" fill="#FF4400"/>
    <path d="M66.0548 38.0177V32.339L76.3695 20.4883C78.0625 18.5521 79.3153 17.1775 80.1279 16.3644C79.2809 16.4165 78.1667 16.4515 76.7856 16.4692L67.0671 16.5209V10.4789H89.8227V15.6467L79.3 27.7839L75.5948 31.803C77.6164 31.6819 78.8692 31.6214 79.3532 31.6214H90.6269V38.0266L66.0548 38.0177Z" fill="#F1F5F9"/>
    <path d="M108.277 29.2516L115.534 30.4712C114.756 32.9221 113.206 35.0551 111.116 36.5516C108.873 38.0096 106.234 38.7388 103.561 38.6394C98.7748 38.6394 95.2334 37.0748 92.9363 33.9455C91.0372 31.1549 90.0834 27.828 90.2153 24.4544C89.9865 20.5531 91.2673 16.7134 93.7922 13.7318C94.9312 12.4713 96.3291 11.4721 97.8902 10.8029C99.4513 10.1336 101.139 9.81005 102.836 9.85439C104.652 9.7668 106.464 10.0858 108.141 10.7879C109.818 11.4901 111.317 12.5579 112.53 13.9134C114.897 16.6194 116.028 20.764 115.924 26.3473H97.676C97.6122 28.1899 98.2409 29.9895 99.4379 31.3911C99.9682 31.9745 100.617 32.4373 101.342 32.7483C102.066 33.0593 102.848 33.2113 103.636 33.194C104.675 33.2277 105.692 32.8977 106.514 32.2608C107.398 31.464 108.014 30.4128 108.277 29.2516ZM108.692 21.8867C108.767 20.1353 108.184 18.4191 107.058 17.0761C106.58 16.549 105.996 16.1296 105.343 15.8458C104.691 15.5619 103.986 15.4201 103.275 15.4298C102.53 15.4117 101.792 15.5581 101.111 15.8585C100.43 16.1589 99.8232 16.6059 99.3346 17.1677C98.2413 18.4898 97.6944 20.1801 97.8059 21.8926L108.692 21.8867Z" fill="#F1F5F9"/>
    <path d="M124.115 18.8789L117.507 17.6859C118.052 15.3272 119.411 13.236 121.344 11.7798C123.784 10.3378 126.603 9.66861 129.43 9.86024C131.904 9.72486 134.378 10.1185 136.687 11.0149C138.086 11.6149 139.26 12.6404 140.043 13.9458C140.845 16.0209 141.177 18.2485 141.015 20.4677L140.937 28.974C140.891 30.766 141.008 32.5585 141.287 34.3293C141.566 35.6099 142.006 36.8501 142.596 38.0207H135.39C135.2 37.5364 134.967 36.8188 134.691 35.8679C134.57 35.4368 134.483 35.1518 134.431 35.013C133.282 36.159 131.931 37.0821 130.447 37.7357C129.013 38.3444 127.47 38.6534 125.912 38.6438C123.463 38.7806 121.058 37.9521 119.213 36.336C118.413 35.5934 117.782 34.6889 117.359 33.6826C116.937 32.6764 116.734 31.5917 116.763 30.5007C116.738 29.0363 117.124 27.5943 117.877 26.3384C118.621 25.1165 119.707 24.1407 121.001 23.533C122.854 22.7287 124.8 22.1579 126.793 21.8335C129.202 21.456 131.57 20.857 133.869 20.0439V19.3174C133.924 18.773 133.86 18.2231 133.682 17.7058C133.503 17.1885 133.215 16.7161 132.836 16.3216C131.666 15.5982 130.29 15.2835 128.922 15.4268C127.857 15.3651 126.799 15.6321 125.89 16.1916C125.035 16.8821 124.414 17.821 124.115 18.8789ZM133.854 24.785C132.398 25.2305 130.92 25.6026 129.427 25.8998C128.047 26.1131 126.709 26.5415 125.462 27.1696C125.027 27.4423 124.668 27.8208 124.419 28.2698C124.17 28.7188 124.038 29.2237 124.037 29.7373C124.033 30.2332 124.132 30.7245 124.329 31.1798C124.525 31.6351 124.814 32.0445 125.177 32.3818C125.562 32.7528 126.017 33.0427 126.515 33.2342C127.014 33.4257 127.546 33.5149 128.08 33.4966C129.44 33.4815 130.758 33.0267 131.838 32.2002C132.67 31.6131 133.281 30.7643 133.575 29.789C133.817 28.6212 133.912 27.4279 133.86 26.2365L133.854 24.785Z" fill="#F1F5F9"/>
    <path d="M144.695 38.0178V0H151.978V13.6919C152.939 12.4985 154.155 11.5346 155.536 10.8705C156.917 10.2064 158.429 9.85877 159.961 9.85292C161.529 9.81483 163.087 10.1214 164.525 10.751C165.962 11.3806 167.244 12.318 168.28 13.497C170.475 15.9264 171.572 19.4144 171.572 23.9612C171.572 28.6644 170.454 32.2864 168.217 34.827C167.226 36.0284 165.981 36.9939 164.571 37.6534C163.161 38.3129 161.622 38.6497 160.065 38.6394C158.442 38.6264 156.846 38.2212 155.413 37.4582C153.835 36.6293 152.48 35.4332 151.461 33.9706V38.0163L144.695 38.0178ZM151.926 23.6511C151.772 25.8453 152.239 28.0386 153.273 29.9796C153.779 30.8661 154.511 31.6022 155.394 32.1125C156.277 32.6228 157.281 32.889 158.301 32.8839C159.099 32.8812 159.885 32.6932 160.598 32.3345C161.311 31.9757 161.931 31.4561 162.409 30.8167C163.695 28.9067 164.293 26.6155 164.106 24.32C164.312 21.9235 163.71 19.527 162.395 17.5132C161.878 16.8483 161.213 16.3134 160.452 15.951C159.692 15.5885 158.858 15.4086 158.016 15.4254C157.183 15.4119 156.358 15.5882 155.604 15.941C154.849 16.2938 154.185 16.8138 153.661 17.4615C152.37 19.2541 151.755 21.4465 151.926 23.6496V23.6511Z" fill="#F1F5F9"/>
    <path d="M192.359 38.0178V33.8953C191.355 35.3678 189.996 36.5632 188.408 37.3711C186.815 38.2081 185.042 38.6444 183.243 38.6423C181.507 38.6702 179.794 38.2501 178.267 37.4227C176.853 36.6694 175.73 35.4648 175.078 34.0002C174.339 32.0571 174.005 29.9835 174.094 27.9065V10.4834H181.376V23.1387C181.268 25.519 181.403 27.9041 181.778 30.2571C182.019 31.0934 182.535 31.8241 183.242 32.3317C184.035 32.8672 184.979 33.1351 185.936 33.0965C187.13 33.1119 188.299 32.7537 189.28 32.0718C190.207 31.4619 190.915 30.5716 191.301 29.5307C191.796 27.087 191.979 24.5905 191.846 22.1007V10.4834H199.128V38.0237L192.359 38.0178Z" fill="#F1F5F9"/>
    <path d="M210.452 38.0178H203.17V10.4775H209.934V14.3932C210.712 12.9725 211.775 11.7278 213.057 10.7373C213.998 10.1429 215.092 9.83516 216.206 9.85144C217.899 9.86146 219.558 10.337 221 11.2261L218.745 17.5752C217.744 16.856 216.556 16.4417 215.325 16.3821C214.389 16.3546 213.474 16.6526 212.733 17.2252C211.876 18.0445 211.292 19.1088 211.062 20.2728C210.529 23.3193 210.325 26.4141 210.452 29.5041V38.0178Z" fill="#F1F5F9"/>
  </g>
  <defs>
    <clipPath id="clip0_6_236">
      <rect width="221" height="42" fill="white"/>
    </clipPath>
  </defs>
</svg>