<svg width="2402" height="429" viewBox="0 0 2402 429" fill="none" xmlns="http://www.w3.org/2000/svg">
<path d="M978.375 191.178H977.774V192.219L978.375 191.178Z" fill="#F1F5F9"/>
<path d="M974.607 351.178L1184.56 351.178L1232.48 268.178L1022.53 268.178L1066.98 191.178L1276.94 191.178L1387.32 0L1453.77 5.80983e-06L1453.77 38.3688L1228.57 428.441L930 428.441L974.607 351.178Z" fill="#F1F5F9"/>
<path d="M1744.21 428.565L1849.19 246.738L1945.03 246.738L1840.05 428.565L1928.97 428.565L2033.94 246.738V170L1804.28 170L1655 428.565L1744.21 428.565Z" fill="#F1F5F9"/>
<path d="M2156.46 428.441L2090 428.442L2090 390.072L2315.21 0L2381.66 5.80983e-06V38.3688L2156.46 428.441Z" fill="#F1F5F9"/>
<path d="M2100 170V246.738L2368.75 246.738L2401.98 189.184L2368.75 170L2100 170Z" fill="#F1F5F9"/>
<path d="M530.13 0H225.208L0 390.072L66.4567 428.441H282.769L327.328 351.262H111.016L176.834 237.262L393.146 237.262L437.602 160.262L221.29 160.262L269.21 77.2624H485.522L530.13 0Z" fill="#F1F5F9"/>
<path d="M359 428.106L511.461 164.036L961.876 164.036L961.876 240.773L853.72 428.105L764.602 428.105L872.759 240.773L741.123 240.773L632.967 428.105L544.055 428.105L652.211 240.773L556.371 240.773L448.215 428.106L359 428.106Z" fill="#F1F5F9"/>
<path fill-rule="evenodd" clip-rule="evenodd" d="M1305 428.067L1349.95 350.205L1349.95 350.196L1349.96 350.196L1457.46 164L1700.54 164L1700.54 217.499L1578.97 428.067L1490.05 428.067L1490.08 428.02L1394.24 428.02L1394.21 428.067L1305 428.067ZM1439.17 350.196L1502.37 240.738L1598.21 240.738L1535.01 350.196L1439.17 350.196Z" fill="#F1F5F9"/>
</svg>
