<?xml version="1.0" encoding="UTF-8" standalone="no"?>
<!-- Created with Inkscape (http://www.inkscape.org/) -->
<svg width="221.88293mm" height="82.467308mm" viewBox="0 0 221.88293 82.467309" version="1.1" id="svg1" xmlns="http://www.w3.org/2000/svg" xmlns:svg="http://www.w3.org/2000/svg">
  <defs id="defs1"/>
  <g id="layer1" transform="translate(-1867.7905,-209.35915)">
    <g id="g70" transform="translate(716.5681,-237.10879)">
      <g id="g67">
        <g id="g66">
          <path id="rect2-1-8-5-8" style="fill:#b0d3f4;stroke-width:0.813988;stroke-linecap:square;paint-order:markers fill stroke" transform="matrix(1,0,-0.25881905,0.96592583,0,0)" d="m 1313.2739,462.21762 h 11.0589 v 54.21975 h -11.0589 z"/>
          <path id="rect3-3-7-2-81" style="fill:#b0d3f4;stroke-width:0.813988;stroke-linecap:square;paint-order:markers fill stroke" transform="matrix(1,0,-0.25881905,0.96592583,0,0)" d="m 1286.8617,469.85007 h 11.0588 v 54.21984 h -11.0588 z"/>
          <path d="m 1187.7276,468.54527 -8.1177,30.29502 h 11.0587 l 2.7495,-10.26071 z" style="fill:#a2cbf1;fill-opacity:1;stroke-width:0.8;stroke-linecap:square;stroke-dasharray:none;paint-order:markers fill stroke" id="path3-9-0-3-6"/>
          <path d="m 1168.1966,484.13532 8.1176,-30.29503 h -11.0587 l -2.7494,10.26072 z" style="fill:#a2cbf1;fill-opacity:1;stroke-width:0.8;stroke-linecap:square;stroke-dasharray:none;paint-order:markers fill stroke" id="path4-9-1-1-3"/>
          <path d="m 1165.2554,453.84044 1.5183,5.34431 11.2633,39.65554 h 12.6316 l -1.5182,-5.3443 -11.2634,-39.65555 z" style="fill:#73b3eb;fill-opacity:1;stroke-width:0.8;stroke-linecap:square;stroke-dasharray:none;paint-order:markers fill stroke" id="path5-5-4-6-8"/>
        </g>
        <path d="m 1359.0849,498.84023 q -4.215,0 -7.9551,-1.4248 -3.7401,-1.4248 -6.649,-4.2744 -2.8496,-2.90896 -4.5119,-7.12399 -1.6029,-4.27439 -1.6029,-9.85485 0,-5.5211 1.6623,-9.79549 1.7216,-4.33377 4.6306,-7.3021 2.9683,-2.96833 6.7677,-4.51186 3.7995,-1.54353 8.0145,-1.54353 4.3338,0 7.7177,1.72163 3.4433,1.72163 5.6992,4.03693 l -5.5211,6.76779 q -1.6623,-1.54353 -3.5026,-2.49339 -1.8404,-0.94987 -4.2151,-0.94987 -2.8496,0 -5.2242,1.66227 -2.3747,1.60289 -3.7995,4.68996 -1.3654,3.02769 -1.3654,7.36146 0,4.39312 1.2467,7.53955 1.306,3.08707 3.6213,4.74933 2.3153,1.6029 5.4024,1.6029 2.6715,0 4.7493,-1.18733 2.1372,-1.18733 3.6808,-2.8496 l 5.5804,6.64906 q -2.7902,3.26516 -6.4709,4.92743 -3.6214,1.6029 -7.9552,1.6029 z" id="text23-6-8-8-7" style="font-weight:900;font-size:59.3666px;line-height:1.1em;font-family:'Noto Sans TC';-inkscape-font-specification:'Noto Sans TC Heavy';text-align:center;letter-spacing:5.29167px;word-spacing:0px;text-orientation:upright;fill:#b0d3f4;stroke-width:0.8;stroke-linecap:square;paint-order:markers fill stroke" transform="skewX(-15)" aria-label="C"/>
        <path d="m 1402.2954,498.84035 q -4.3338,0 -8.7269,-1.6029 -4.3337,-1.6029 -7.777,-4.74933 l 6.0554,-7.30209 q 2.3153,2.01847 5.1649,3.26516 2.9089,1.2467 5.5211,1.2467 2.9683,0 4.3337,-1.00923 1.4248,-1.0686 1.4248,-2.8496 0,-1.30606 -0.7717,-2.07783 -0.7718,-0.83113 -2.1966,-1.48416 -1.3654,-0.65304 -3.2652,-1.4248 l -5.6398,-2.37467 q -2.3153,-0.94986 -4.3931,-2.55276 -2.0185,-1.6029 -3.3245,-3.97756 -1.2467,-2.37467 -1.2467,-5.58046 0,-3.7401 2.0184,-6.76779 2.0779,-3.0277 5.6992,-4.8087 3.6214,-1.781 8.3113,-1.781 3.8589,0 7.6583,1.48417 3.7995,1.4248 6.7085,4.33376 l -5.2837,6.64906 q -2.1965,-1.66227 -4.3337,-2.4934 -2.1372,-0.8905 -4.7494,-0.8905 -2.434,0 -3.8588,0.94987 -1.3654,0.94986 -1.3654,2.6715 0,1.24669 0.8311,2.07783 0.8905,0.83113 2.3747,1.48416 1.4841,0.65303 3.4432,1.4248 l 5.5211,2.19656 q 2.7309,1.0686 4.69,2.73087 1.9591,1.66226 2.9683,3.97756 1.0686,2.25593 1.0686,5.40236 0,3.68073 -2.0184,6.82716 -1.9591,3.14643 -5.7586,5.10553 -3.7401,1.89973 -9.0831,1.89973 z" id="text22-5-1-8-6" style="font-weight:900;font-size:59.3666px;line-height:1.1em;font-family:'Noto Sans TC';-inkscape-font-specification:'Noto Sans TC Heavy';text-align:center;letter-spacing:5.29167px;word-spacing:0px;text-orientation:upright;fill:#b0d3f4;stroke-width:0.8;stroke-linecap:square;paint-order:markers fill stroke" transform="skewX(-15)" aria-label="S"/>
        <path d="m 1297.7723,498.84029 11.8509,-44.22811 h 28.021 l -2.3702,8.84562 h -17.3944 l -2.1952,8.19259 h 14.7823 l -2.3861,8.90499 h -14.7823 l -2.5133,9.37992 h 18.0474 l -2.386,8.90499 z" id="text21-3-9-2-1" style="font-weight:900;font-size:59.3666px;line-height:1.1em;font-family:'Noto Sans TC';-inkscape-font-specification:'Noto Sans TC Heavy';text-align:center;letter-spacing:5.29167px;word-spacing:0px;text-orientation:upright;fill:#b0d3f4;stroke-width:0.8;stroke-linecap:square;paint-order:markers fill stroke" aria-label="E"/>
      </g>
      <g id="g69">
        <path d="m 1190.5146,528.45765 6.8099,-25.41494 h 6.2088 l 3.0478,12.1787 0.9821,5.62881 h 0.1706 c 0.2003,-1.34181 0.4236,-2.8542 0.6699,-4.53716 0.2751,-1.7057 0.6168,-3.32043 1.025,-4.84419 l 2.2578,-8.42616 h 5.7994 l -6.8099,25.41494 h -6.2088 l -2.9954,-12.24693 -1.0003,-5.56059 h -0.1706 c -0.2414,1.41005 -0.4935,2.94518 -0.7564,4.60539 -0.2341,1.63748 -0.5583,3.22946 -0.9727,4.77597 l -2.2578,8.42616 z m 34.259,0.4776 c -1.8649,0 -3.4413,-0.398 -4.729,-1.19399 -1.2589,-0.81874 -2.1277,-1.98999 -2.6063,-3.51375 -0.456,-1.52376 -0.3975,-3.35454 0.1753,-5.49235 0.4205,-1.56925 1.0485,-2.9793 1.884,-4.23014 0.8582,-1.25085 1.8383,-2.31976 2.9402,-3.20672 1.1246,-0.88696 2.2937,-1.55788 3.5072,-2.01273 1.2424,-0.47759 2.4435,-0.71639 3.6034,-0.71639 1.8649,0 3.3017,0.40937 4.3104,1.2281 1.0087,0.81874 1.6312,1.93313 1.8674,3.34317 0.2363,1.41005 0.1167,3.00204 -0.3586,4.77597 -0.1463,0.54583 -0.3175,1.05753 -0.5137,1.53513 -0.1734,0.47759 -0.3278,0.84148 -0.4631,1.09165 h -11.3941 c -0.056,0.88696 0.071,1.60335 0.3794,2.14918 0.3086,0.54583 0.7561,0.9552 1.3425,1.22811 0.5925,0.25016 1.2981,0.37525 2.1169,0.37525 0.705,0 1.4147,-0.10234 2.1291,-0.30703 0.7143,-0.20468 1.4789,-0.51171 2.2936,-0.92108 l 1.0347,3.6502 c -1.1896,0.70503 -2.4616,1.25085 -3.8161,1.63748 -1.3317,0.38662 -2.5661,0.57994 -3.7032,0.57994 z m -0.8097,-12.38339 h 6.6181 c 0.256,-0.95519 0.2304,-1.75119 -0.077,-2.38798 -0.2843,-0.6368 -0.9836,-0.95519 -2.098,-0.95519 -0.5458,0 -1.1024,0.12508 -1.6697,0.37525 -0.5386,0.22742 -1.0568,0.59131 -1.5548,1.09165 -0.4691,0.47759 -0.8755,1.10302 -1.2191,1.87627 z m 19.3336,12.38339 c -1.6147,0 -2.8485,-0.3184 -3.7012,-0.9552 -0.824,-0.65953 -1.3224,-1.55787 -1.4953,-2.69501 -0.1441,-1.15987 -0.012,-2.50169 0.3963,-4.02545 l 2.0018,-7.47097 h -2.6267 l 1.2065,-4.50305 3.0661,-0.2388 2.0625,-5.15122 h 5.0148 l -1.3803,5.15122 h 4.5713 l -1.2706,4.74185 h -4.5713 l -1.9835,7.40274 c -0.2864,1.06891 -0.2662,1.84216 0.061,2.31976 0.3557,0.45485 0.8861,0.68228 1.5911,0.68228 0.3184,0 0.6459,-0.0341 0.9826,-0.10235 0.3428,-0.091 0.6401,-0.18194 0.8919,-0.27291 l -0.224,4.40071 c -0.543,0.1592 -1.1997,0.3184 -1.9701,0.4776 -0.7477,0.1592 -1.6219,0.2388 -2.6226,0.2388 z m 10.9421,-0.4776 0.4252,-19.41088 h 6.0041 l -0.582,8.66497 c -0.1028,0.97793 -0.2254,1.94449 -0.3676,2.89969 -0.1422,0.95519 -0.2678,1.93313 -0.3767,2.9338 h 0.1705 c 0.4501,-1.00067 0.8827,-1.97861 1.2979,-2.9338 0.4439,-0.97794 0.9076,-1.94451 1.391,-2.89969 l 4.3345,-8.66497 h 5.2194 l -0.2408,8.66497 c -0.035,0.97793 -0.089,1.94449 -0.1629,2.89969 -0.074,0.95519 -0.1427,1.93313 -0.2062,2.9338 h 0.1706 c 0.4273,-1.00067 0.8258,-1.97861 1.1955,-2.9338 0.3924,-0.9552 0.7992,-1.92176 1.2204,-2.89969 l 3.9934,-8.66497 h 5.6288 l -9.7724,19.41088 h -7.0957 l 0.3461,-7.40275 c 0.062,-0.9097 0.1349,-1.8194 0.2195,-2.72911 0.091,-0.93245 0.1852,-1.92176 0.2835,-2.96792 h -0.1705 c -0.4395,1.04616 -0.8524,2.03547 -1.2388,2.96792 -0.3802,0.90971 -0.7831,1.81941 -1.2088,2.72911 l -3.5528,7.40275 z m 35.0095,0.4776 c -1.6375,0 -3.0773,-0.398 -4.3196,-1.19399 -1.2361,-0.81874 -2.1049,-1.98999 -2.6063,-3.51375 -0.4787,-1.52376 -0.4316,-3.35454 0.1412,-5.49235 0.5728,-2.13782 1.5038,-3.95723 2.793,-5.45825 1.318,-1.52376 2.8114,-2.68363 4.4802,-3.47963 1.6749,-0.81873 3.3311,-1.2281 4.9686,-1.2281 1.2281,0 2.3498,0.22743 3.365,0.68228 1.0153,0.45485 1.8475,1.12576 2.4968,2.01272 0.6554,0.86422 1.0771,1.92176 1.265,3.17261 0.1879,1.25085 0.066,2.68364 -0.3671,4.29837 -0.5728,2.13781 -1.5182,3.96859 -2.8362,5.49235 -1.2953,1.52376 -2.7804,2.69501 -4.4553,3.51375 -1.6461,0.79599 -3.2878,1.19399 -4.9253,1.19399 z m 1.3163,-4.91242 c 0.7505,0 1.4224,-0.21606 2.0158,-0.64817 0.6161,-0.43211 1.1445,-1.04616 1.5853,-1.84215 0.4407,-0.796 0.8042,-1.72845 1.0906,-2.79735 0.2865,-1.06891 0.4195,-1.98999 0.3993,-2.76324 -0.014,-0.79599 -0.2135,-1.41005 -0.598,-1.84216 -0.3618,-0.43211 -0.918,-0.64816 -1.6685,-0.64816 -0.7505,0 -1.4338,0.21605 -2.05,0.64816 -0.5933,0.43211 -1.1218,1.04617 -1.5852,1.84216 -0.4346,0.77325 -0.7952,1.69433 -1.0816,2.76324 -0.2864,1.0689 -0.4225,2.00135 -0.4084,2.79735 0.037,0.79599 0.2363,1.41004 0.5981,1.84215 0.3845,0.43211 0.9521,0.64817 1.7026,0.64817 z m 12.1161,4.43482 5.2011,-19.41088 h 4.9466 l -0.4615,3.37729 h 0.1023 c 1.0752,-1.29633 2.187,-2.2629 3.3356,-2.89969 1.1713,-0.63679 2.2459,-0.95519 3.2238,-0.95519 0.5913,0 1.0453,0.0454 1.3621,0.13645 0.3456,0.0682 0.6397,0.1592 0.8821,0.27292 l -2.3878,5.21944 c -0.3396,-0.091 -0.6624,-0.1592 -0.9686,-0.20468 -0.3002,-0.0682 -0.6663,-0.10235 -1.0984,-0.10235 -0.705,0 -1.5256,0.26154 -2.4617,0.78463 -0.9134,0.52308 -1.7909,1.42141 -2.6325,2.695 l -2.9708,11.08706 z m 15.8289,0 7.3035,-27.2571 h 5.97 l -4.0585,15.14662 h 0.1705 l 7.6873,-7.3004 h 6.6523 l -8.921,8.08503 4.1974,11.32585 h -6.584 l -2.2216,-7.36863 -2.9371,2.55856 -1.2888,4.81007 z" id="text21-3-2-3-4-5" style="font-weight:900;font-size:59.3666px;line-height:1.1em;font-family:'Noto Sans TC';-inkscape-font-specification:'Noto Sans TC Heavy';text-align:center;letter-spacing:0px;word-spacing:0px;text-orientation:upright;fill:#73b3eb;stroke-width:0.799999;stroke-linecap:square;paint-order:markers fill stroke" aria-label="Network"/>
      </g>
      <g id="g34-1-7" transform="matrix(0.57329863,0,0,0.57329863,948.91437,122.08104)" style="stroke-width:1.74429">
        <path id="rect1-8-53-4-9-5-5-0-1-1-8" style="fill:#a2cbf1;stroke-width:1.41983;stroke-linecap:square;paint-order:markers fill stroke" d="m 886.54505,680.48499 h 18.86513 v 53.35947 h -18.86513 z" transform="matrix(1,0,-0.25881905,0.96592583,0,0)"/>
        <path id="rect1-8-53-4-9-5-39-8-3-6" style="fill:#73b3eb;stroke-width:1.41983;stroke-linecap:square;paint-order:markers fill stroke" transform="matrix(1,0,-0.25881905,0.96592583,0,0)" d="m 879.17249,680.48499 h 14.74511 v 53.35947 h -14.74511 z"/>
        <path id="rect1-8-53-4-9-5-3-8-0-2-6" style="fill:#b0d3f4;stroke-width:1.41983;stroke-linecap:square;paint-order:markers fill stroke" transform="matrix(1,0,-0.25881905,0.96592583,0,0)" d="m 901.29016,680.48499 h 14.74512 v 53.35949 h -14.74512 z"/>
      </g>
    </g>
  </g>
<script xmlns=""/></svg>